<?xml version="1.0" encoding="UTF-8" standalone="no"?>
<svg
   xmlns:dc="http://purl.org/dc/elements/1.1/"
   xmlns:cc="http://creativecommons.org/ns#"
   xmlns:rdf="http://www.w3.org/1999/02/22-rdf-syntax-ns#"
   xmlns:svg="http://www.w3.org/2000/svg"
   xmlns="http://www.w3.org/2000/svg"
   id="svg836"
   version="1.1"
   viewBox="0 0 67.733332 67.733336"
   height="256"
   width="256">
  <defs
     id="defs830" />
  <metadata
     id="metadata833">
    <rdf:RDF>
      <cc:Work
         rdf:about="">
        <dc:format>image/svg+xml</dc:format>
        <dc:type
           rdf:resource="http://purl.org/dc/dcmitype/StillImage" />
        <dc:title></dc:title>
      </cc:Work>
    </rdf:RDF>
  </metadata>
  <g
     transform="translate(0,-229.26665)"
     id="layer1">
    <path
       style="color:black;font-style:normal;font-variant:normal;font-weight:normal;font-stretch:normal;font-size:medium;line-height:normal;font-family:sans-serif;font-variant-ligatures:normal;font-variant-position:normal;font-variant-caps:normal;font-variant-numeric:normal;font-variant-alternates:normal;font-feature-settings:normal;text-indent:0;text-align:start;text-decoration:none;text-decoration-line:none;text-decoration-style:solid;text-decoration-color:black;letter-spacing:normal;word-spacing:normal;text-transform:none;writing-mode:lr-tb;direction:ltr;text-orientation:mixed;dominant-baseline:auto;baseline-shift:baseline;text-anchor:start;white-space:normal;shape-padding:0;clip-rule:nonzero;display:inline;overflow:visible;visibility:visible;opacity:1;isolation:auto;mix-blend-mode:normal;color-interpolation:sRGB;color-interpolation-filters:linearRGB;solid-color:black;solid-opacity:1;vector-effect:none;fill:#a7a9ab;fill-opacity:1;fill-rule:nonzero;stroke:none;stroke-width:1.42990792;stroke-linecap:round;stroke-linejoin:round;stroke-miterlimit:4;stroke-dasharray:none;stroke-dashoffset:0;stroke-opacity:1;paint-order:markers fill stroke;color-rendering:auto;image-rendering:auto;shape-rendering:auto;text-rendering:auto;enable-background:accumulate"
       d="M 53.127658,249.76986 51.668752,249.29685 C 51.78133,247.98099 51.861211,246.76944 51.917569,245.69225 51.973954,244.6151 52.006898,243.67237 52.025767,242.89408 52.044635,242.11578 52.049317,241.50183 52.0494,241.08259 52.049455,240.66338 52.044828,240.43877 52.044828,240.43877 A 0.65027023,0.65027023 0 0 0 52.04199,240.38867 0.65027023,0.65027023 0 0 0 52.032322,240.32433 0.65027023,0.65027023 0 0 0 52.016511,240.26127 0.65027023,0.65027023 0 0 0 51.994309,240.2002 0.65027023,0.65027023 0 0 0 51.966131,240.14156 0.65027023,0.65027023 0 0 0 51.932388,240.08606 0.65027023,0.65027023 0 0 0 51.893108,240.03424 0.65027023,0.65027023 0 0 0 51.848981,239.98657 0.65027023,0.65027023 0 0 0 51.800143,239.94357 0.65027023,0.65027023 0 0 0 51.747477,239.90569 0.65027023,0.65027023 0 0 0 51.69112,239.87324 0.65027023,0.65027023 0 0 0 51.631897,239.8465 0.65027023,0.65027023 0 0 0 51.570251,239.82584 0.65027023,0.65027023 0 0 0 51.506787,239.81146 C 51.506787,239.81146 50.751579,239.67831 49.523503,239.47852 48.295425,239.27873 46.59459,239.01227 44.703169,238.74588 43.757459,238.61269 42.764013,238.4796 41.758363,238.35473 40.752687,238.22987 39.734698,238.11327 38.739654,238.01339 37.744637,237.91348 36.772566,237.83024 35.858752,237.77196 35.401857,237.74284 34.959594,237.71995 34.536251,237.70436 34.112881,237.68874 33.708461,237.68045 33.327456,237.68045 32.946478,237.68045 32.542169,237.68874 32.118826,237.70436 31.695456,237.71997 31.253052,237.74281 30.796159,237.77196 29.882373,237.83027 28.910274,237.91362 27.915258,238.01353 26.920242,238.11343 25.902253,238.22998 24.896576,238.35486 23.890899,238.47976 22.897619,238.61294 21.951907,238.74617 20.060487,239.01262 18.359514,239.27912 17.131436,239.47896 15.90336,239.6788 15.148152,239.81204 15.148152,239.81204 A 0.65027023,0.65027023 0 0 0 15.099756,239.82242 0.65027023,0.65027023 0 0 0 15.037697,239.84165 0.65027023,0.65027023 0 0 0 14.977758,239.86685 0.65027023,0.65027023 0 0 0 14.920684,239.898 0.65027023,0.65027023 0 0 0 14.867025,239.93476 0.65027023,0.65027023 0 0 0 14.817334,239.97659 0.65027023,0.65027023 0 0 0 14.772078,240.02315 0.65027023,0.65027023 0 0 0 14.731641,240.0741 0.65027023,0.65027023 0 0 0 14.696493,240.12875 0.65027023,0.65027023 0 0 0 14.66702,240.18668 0.65027023,0.65027023 0 0 0 14.643386,240.24733 0.65027023,0.65027023 0 0 0 14.626032,240.3098 0.65027023,0.65027023 0 0 0 14.614932,240.37388 0.65027023,0.65027023 0 0 0 14.610222,240.43877 C 14.610222,240.43877 14.599259,240.97101 14.611378,241.92599 14.617438,242.40349 14.62931,242.98671 14.651209,243.66187 14.673135,244.33703 14.705115,245.10419 14.751446,245.94961 14.79775,246.79505 14.858487,247.71881 14.937762,248.70711 15.017065,249.69543 15.114878,250.74827 15.235692,251.85205 15.356477,252.95585 15.500264,254.11057 15.671127,255.30248 15.756544,255.89842 15.84871,256.50368 15.948259,257.1165 16.047807,257.72934 16.154656,258.34979 16.269381,258.97608 L 14.709743,258.47049 C 14.812624,259.0323 14.92275,259.59918 15.038688,260.16951 L 16.596647,260.67468 C 16.703274,261.19868 16.816925,261.72642 16.935122,262.25584 L 15.379891,261.75151 C 15.507563,262.32415 15.643279,262.8985 15.785273,263.47587 L 17.33855,263.97948 C 17.470354,264.51405 17.608493,265.04962 17.753326,265.58553 L 16.195808,265.08052 C 16.35276,265.66395 16.512248,266.24778 16.685314,266.83163 L 18.251674,267.33937 C 18.415072,267.88661 18.586073,268.43283 18.764538,268.97718 L 17.200466,268.46999 C 17.3951,269.06987 17.6018,269.6665 17.815248,270.26211 L 19.383866,270.77071 C 19.588912,271.33447 19.802912,271.89477 20.026138,272.4505 L 18.446116,271.93807 C 18.689533,272.55638 18.942701,273.1699 19.208788,273.77815 L 20.811012,274.2977 C 21.148523,275.04829 21.504601,275.78744 21.880318,276.51215 22.068176,276.87451 22.260965,277.23328 22.458795,277.58799 22.656597,277.94268 22.859413,278.29336 23.067462,278.63964 23.275483,278.98588 23.488739,279.32777 23.707283,279.66479 23.925827,280.00181 24.149715,280.33405 24.379001,280.66105 24.608315,280.98806 24.843138,281.30982 25.08347,281.62601 25.323803,281.9422 25.569589,282.25277 25.821242,282.55737 26.072867,282.86193 26.33025,283.16052 26.593445,283.4527 26.856668,283.7449 27.125784,284.03062 27.400823,284.3096 27.67589,284.58861 27.956906,284.8608 28.244065,285.12583 28.531224,285.39084 28.824526,285.64863 29.124053,285.89888 29.42358,286.14912 29.729415,286.39186 30.041585,286.62654 30.353783,286.86123 30.672344,287.0879 30.997433,287.30624 31.322521,287.52457 31.654138,287.73463 31.99242,287.93582 32.330704,288.13704 32.675516,288.32947 33.027268,288.51276 A 0.65027023,0.65027023 0 0 0 33.062278,288.52967 0.65027023,0.65027023 0 0 0 33.122905,288.55316 0.65027023,0.65027023 0 0 0 33.185543,288.57052 0.65027023,0.65027023 0 0 0 33.249614,288.58148 0.65027023,0.65027023 0 0 0 33.314372,288.58605 0.65027023,0.65027023 0 0 0 33.379406,288.58407 0.65027023,0.65027023 0 0 0 33.44389,288.57567 0.65027023,0.65027023 0 0 0 33.507106,288.56085 0.65027023,0.65027023 0 0 0 33.568587,288.53978 0.65027023,0.65027023 0 0 0 33.627671,288.51276 C 33.914252,288.36341 34.196398,288.208 34.474053,288.04672 34.751682,287.88544 35.024821,287.71833 35.293662,287.54551 35.562501,287.37272 35.827048,287.1942 36.087238,287.01031 36.347405,286.82641 36.603218,286.63706 36.854898,286.44249 37.106552,286.24794 37.354045,286.04803 37.597353,285.84323 37.84066,285.63841 38.079835,285.42869 38.314906,285.21408 38.550002,284.99944 38.780972,284.78002 39.007972,284.55602 39.234972,284.332 39.457923,284.10332 39.676991,283.87034 40.115152,283.40438 40.537558,282.92107 40.944843,282.42185 41.352153,281.92264 41.744425,281.4076 42.122043,280.87857 42.499661,280.34948 42.862597,279.80634 43.211678,279.25083 43.560786,278.69536 43.895901,278.12749 44.21763,277.54898 44.539358,276.97048 44.847755,276.38129 45.143287,275.78319 45.43882,275.18513 45.721571,274.57815 45.992093,273.96392 46.262588,273.34965 46.520797,272.72818 46.767437,272.1012 47.014077,271.47421 47.249092,270.84178 47.473036,270.20545 47.696978,269.56915 47.909765,268.92901 48.112167,268.28681 48.314542,267.64459 48.506505,267.00031 48.688496,266.35562 48.870515,265.71095 49.042701,265.06578 49.205493,264.42202 49.368285,263.77829 49.521657,263.13591 49.666407,262.49653 L 51.00472,262.93056 C 51.123275,262.43345 51.233897,261.94022 51.341929,261.44703 L 49.988686,261.00834 C 50.014083,260.88598 50.040747,260.76297 50.065537,260.64095 50.134456,260.30145 50.200978,259.96319 50.265268,259.62645 L 51.635451,260.0707 C 51.73701,259.56817 51.833996,259.06833 51.925419,258.57241 L 50.53769,258.1226 C 50.619087,257.65345 50.697673,257.18699 50.770585,256.72619 L 52.168257,257.17942 C 52.254172,256.66978 52.336505,256.1652 52.412502,255.66603 L 50.997751,255.20723 C 51.065457,254.73156 51.129885,254.26059 51.189218,253.79777 L 52.62033,254.2618 C 52.691865,253.74257 52.754723,253.23663 52.816342,252.73318 L 51.373826,252.26543 C 51.428696,251.78132 51.47891,251.30747 51.525269,250.843 L 52.970926,251.31173 C 53.027835,250.78623 53.080611,250.27192 53.127658,249.76986 Z M 33.327456,238.98075 C 33.674774,238.98075 34.043302,238.98805 34.429073,239.00182 34.814843,239.0156 35.217914,239.03584 35.634563,239.06159 36.467888,239.11316 37.355506,239.18692 38.267087,239.27599 39.178669,239.36504 40.114215,239.46934 41.043647,239.58186 41.97305,239.6944 42.896368,239.81507 43.783186,239.93701 45.556851,240.18092 47.184885,240.42958 48.425605,240.62696 49.666325,240.82432 50.519593,240.97045 50.743949,241.00902 50.74764,241.39589 50.750312,242.32778 50.708801,243.68195 50.688032,244.35904 50.65619,245.14165 50.608014,246.01453 50.559865,246.88739 50.495326,247.85051 50.409027,248.88847 L 41.169335,245.8924 A 0.75756966,0.75756966 0 0 0 41.096589,245.87149 0.75756966,0.75756966 0 0 0 41.022162,245.85811 0.75756966,0.75756966 0 0 0 40.946575,245.85212 0.75756966,0.75756966 0 0 0 40.890496,245.85255 0.75756966,0.75756966 0 0 0 40.815049,245.85968 0.75756966,0.75756966 0 0 0 40.740732,245.87419 0.75756966,0.75756966 0 0 0 40.668288,245.89612 0.75756966,0.75756966 0 0 0 40.598378,245.92529 0.75756966,0.75756966 0 0 0 40.531636,245.96115 0.75756966,0.75756966 0 0 0 40.468998,246.00357 0.75756966,0.75756966 0 0 0 40.410768,246.05197 0.75756966,0.75756966 0 0 0 40.357688,246.10593 0.75756966,0.75756966 0 0 0 40.310283,246.16498 0.75756966,0.75756966 0 0 0 40.26902,246.22848 0.75756966,0.75756966 0 0 0 40.234285,246.2958 0.75756966,0.75756966 0 0 0 40.206382,246.36626 0.75756966,0.75756966 0 0 0 40.185724,246.439 0.75756966,0.75756966 0 0 0 40.172364,246.5136 0.75756966,0.75756966 0 0 0 40.166524,246.58905 0.75756966,0.75756966 0 0 0 40.16837,246.66477 0.75756966,0.75756966 0 0 0 40.177625,246.73991 0.75756966,0.75756966 0 0 0 40.194427,246.81379 0.75756966,0.75756966 0 0 0 40.218474,246.88554 0.75756966,0.75756966 0 0 0 40.249491,246.95458 0.75756966,0.75756966 0 0 0 40.287366,247.02018 0.75756966,0.75756966 0 0 0 40.331631,247.0817 0.75756966,0.75756966 0 0 0 40.381736,247.13849 0.75756966,0.75756966 0 0 0 40.437266,247.19 0.75756966,0.75756966 0 0 0 40.497618,247.2357 0.75756966,0.75756966 0 0 0 40.562377,247.27498 0.75756966,0.75756966 0 0 0 40.630551,247.30787 0.75756966,0.75756966 0 0 0 40.701727,247.33365 L 50.268821,250.4356 C 50.223427,250.89875 50.173983,251.37305 50.119636,251.85875 L 31.396149,245.78748 A 0.75756966,0.75756966 0 0 0 31.395709,245.78734 0.75756966,0.75756966 0 0 0 31.322824,245.76644 0.75756966,0.75756966 0 0 0 31.248396,245.75305 0.75756966,0.75756966 0 0 0 31.172813,245.74707 0.75756966,0.75756966 0 0 0 31.11943,245.74748 0.75756966,0.75756966 0 0 0 31.043984,245.75448 0.75756966,0.75756966 0 0 0 30.969694,245.769 0.75756966,0.75756966 0 0 0 30.897222,245.79078 0.75756966,0.75756966 0 0 0 30.827202,245.81982 0.75756966,0.75756966 0 0 0 30.760433,245.85554 0.75756966,0.75756966 0 0 0 30.697657,245.8978 0.75756966,0.75756966 0 0 0 30.639426,245.94623 0.75756966,0.75756966 0 0 0 30.586209,246.00015 0.75756966,0.75756966 0 0 0 30.538666,246.05907 0.75756966,0.75756966 0 0 0 30.497376,246.12257 0.75756966,0.75756966 0 0 0 30.462504,246.18975 0.75756966,0.75756966 0 0 0 30.4346,246.26021 0.75756966,0.75756966 0 0 0 30.413666,246.33296 0.75756966,0.75756966 0 0 0 30.400307,246.40755 0.75756966,0.75756966 0 0 0 30.394467,246.483 0.75756966,0.75756966 0 0 0 30.396036,246.55872 0.75756966,0.75756966 0 0 0 30.405292,246.63386 0.75756966,0.75756966 0 0 0 30.421929,246.70774 0.75756966,0.75756966 0 0 0 30.445838,246.77963 0.75756966,0.75756966 0 0 0 30.476882,246.84866 0.75756966,0.75756966 0 0 0 30.514591,246.91431 0.75756966,0.75756966 0 0 0 30.558719,246.97578 0.75756966,0.75756966 0 0 0 30.608824,247.03272 0.75756966,0.75756966 0 0 0 30.664218,247.08426 0.75756966,0.75756966 0 0 0 30.72457,247.13009 0.75756966,0.75756966 0 0 0 30.78919,247.1695 0.75756966,0.75756966 0 0 0 30.857365,247.20239 0.75756966,0.75756966 0 0 0 30.928541,247.22832 L 49.936295,253.3915 C 49.877624,253.85358 49.814132,254.3246 49.746702,254.80171 L 27.169085,247.4811 A 0.75756966,0.75756966 0 0 0 27.096366,247.4602 0.75756966,0.75756966 0 0 0 27.021912,247.44667 0.75756966,0.75756966 0 0 0 26.946327,247.44066 0.75756966,0.75756966 0 0 0 26.892366,247.44096 0.75756966,0.75756966 0 0 0 26.817085,247.44807 0.75756966,0.75756966 0 0 0 26.742768,247.46258 0.75756966,0.75756966 0 0 0 26.670186,247.48438 0.75756966,0.75756966 0 0 0 26.600276,247.51328 0.75756966,0.75756966 0 0 0 26.533534,247.54913 0.75756966,0.75756966 0 0 0 26.470758,247.59142 0.75756966,0.75756966 0 0 0 26.41239,247.63981 0.75756966,0.75756966 0 0 0 26.35931,247.69377 0.75756966,0.75756966 0 0 0 26.311768,247.75269 0.75756966,0.75756966 0 0 0 26.27034,247.81618 0.75756966,0.75756966 0 0 0 26.235468,247.88337 0.75756966,0.75756966 0 0 0 26.207563,247.95369 0.75756966,0.75756966 0 0 0 26.186767,248.02658 0.75756966,0.75756966 0 0 0 26.173407,248.101 0.75756966,0.75756966 0 0 0 26.167431,248.17659 0.75756966,0.75756966 0 0 0 26.169138,248.25234 0.75756966,0.75756966 0 0 0 26.178228,248.32748 0.75756966,0.75756966 0 0 0 26.194893,248.40136 0.75756966,0.75756966 0 0 0 26.21894,248.47309 0.75756966,0.75756966 0 0 0 26.249846,248.54228 0.75756966,0.75756966 0 0 0 26.287694,248.60789 0.75756966,0.75756966 0 0 0 26.331683,248.6694 0.75756966,0.75756966 0 0 0 26.381787,248.72634 0.75756966,0.75756966 0 0 0 26.437291,248.77785 0.75756966,0.75756966 0 0 0 26.497505,248.82355 0.75756966,0.75756966 0 0 0 26.562154,248.86312 0.75756966,0.75756966 0 0 0 26.630328,248.89601 0.75756966,0.75756966 0 0 0 26.701505,248.9219 L 49.519784,256.32067 C 49.44734,256.78172 49.371701,257.24679 49.290498,257.71807 L 29.597638,251.33264 A 0.75756966,0.75756966 0 0 0 29.524892,251.312 0.75756966,0.75756966 0 0 0 29.450436,251.29862 0.75756966,0.75756966 0 0 0 29.374853,251.29278 0.75756966,0.75756966 0 0 0 29.322598,251.29322 0.75756966,0.75756966 0 0 0 29.247318,251.30005 0.75756966,0.75756966 0 0 0 29.172863,251.31456 0.75756966,0.75756966 0 0 0 29.10042,251.33636 0.75756966,0.75756966 0 0 0 29.030371,251.36526 0.75756966,0.75756966 0 0 0 28.963629,251.40098 0.75756966,0.75756966 0 0 0 28.900854,251.44326 0.75756966,0.75756966 0 0 0 28.842487,251.49149 0.75756966,0.75756966 0 0 0 28.78924,251.54546 0.75756966,0.75756966 0 0 0 28.741698,251.60437 0.75756966,0.75756966 0 0 0 28.700297,251.66773 0.75756966,0.75756966 0 0 0 28.665425,251.73491 0.75756966,0.75756966 0 0 0 28.637384,251.80537 0.75756966,0.75756966 0 0 0 28.616588,251.87812 0.75756966,0.75756966 0 0 0 28.603062,251.95271 0.75756966,0.75756966 0 0 0 28.597085,252.02813 0.75756966,0.75756966 0 0 0 28.598656,252.10388 0.75756966,0.75756966 0 0 0 28.607773,252.17902 0.75756966,0.75756966 0 0 0 28.62441,252.2529 0.75756966,0.75756966 0 0 0 28.648347,252.32479 0.75756966,0.75756966 0 0 0 28.679225,252.39382 0.75756966,0.75756966 0 0 0 28.716935,252.4596 0.75756966,0.75756966 0 0 0 28.761062,252.52108 0.75756966,0.75756966 0 0 0 28.811029,252.57802 0.75756966,0.75756966 0 0 0 28.866396,252.62956 0.75756966,0.75756966 0 0 0 28.926746,252.67539 0.75756966,0.75756966 0 0 0 28.99123,252.71494 0.75756966,0.75756966 0 0 0 29.05957,252.74797 0.75756966,0.75756966 0 0 0 29.130608,252.77389 L 49.017744,259.22192 C 48.944887,259.60656 48.870047,259.99273 48.790992,260.38216 48.775953,260.45614 48.759563,260.53068 48.744303,260.60478 L 34.938797,256.12821 A 0.75756966,0.75756966 0 0 0 34.938356,256.12807 0.75756966,0.75756966 0 0 0 34.865637,256.10744 0.75756966,0.75756966 0 0 0 34.791044,256.09419 0.75756966,0.75756966 0 0 0 34.71546,256.08849 0.75756966,0.75756966 0 0 0 34.66351,256.08893 0.75756966,0.75756966 0 0 0 34.588063,256.09576 0.75756966,0.75756966 0 0 0 34.513746,256.11028 0.75756966,0.75756966 0 0 0 34.441165,256.13206 0.75756966,0.75756966 0 0 0 34.371117,256.16096 0.75756966,0.75756966 0 0 0 34.304375,256.19668 0.75756966,0.75756966 0 0 0 34.2416,256.23897 0.75756966,0.75756966 0 0 0 34.183232,256.2872 0.75756966,0.75756966 0 0 0 34.129986,256.34116 0.75756966,0.75756966 0 0 0 34.082444,256.40008 0.75756966,0.75756966 0 0 0 34.041043,256.46343 0.75756966,0.75756966 0 0 0 34.006171,256.53062 0.75756966,0.75756966 0 0 0 33.978101,256.60108 0.75756966,0.75756966 0 0 0 33.957333,256.67383 0.75756966,0.75756966 0 0 0 33.943807,256.74841 0.75756966,0.75756966 0 0 0 33.937831,256.82387 0.75756966,0.75756966 0 0 0 33.9394,256.89959 0.75756966,0.75756966 0 0 0 33.948655,256.97473 0.75756966,0.75756966 0 0 0 33.965156,257.0486 0.75756966,0.75756966 0 0 0 33.989065,257.1205 0.75756966,0.75756966 0 0 0 34.019971,257.18952 0.75756966,0.75756966 0 0 0 34.05768,257.2553 0.75756966,0.75756966 0 0 0 34.101808,257.31679 0.75756966,0.75756966 0 0 0 34.151775,257.37372 0.75756966,0.75756966 0 0 0 34.207141,257.42526 0.75756966,0.75756966 0 0 0 34.267492,257.4711 0.75756966,0.75756966 0 0 0 34.332141,257.51065 0.75756966,0.75756966 0 0 0 34.400315,257.54367 0.75756966,0.75756966 0 0 0 34.471327,257.56959 L 48.423043,262.09344 C 48.28248,262.71612 48.13346,263.34104 47.975515,263.96667 47.817543,264.59228 47.65073,265.21855 47.474467,265.84391 47.298178,266.46924 47.112524,267.0937 46.917035,267.71558 46.721574,268.33747 46.516252,268.9568 46.300683,269.57202 46.085114,270.18724 45.859271,270.79833 45.622712,271.40372 45.386126,272.00909 45.138853,272.60874 44.880368,273.20108 44.62191,273.79344 44.352271,274.3785 44.071006,274.95463 43.78977,275.53076 43.496964,276.09806 43.192038,276.65477 42.887113,277.2115 42.570121,277.75775 42.240598,278.29187 41.911102,278.82601 41.569017,279.34802 41.214014,279.8564 40.859038,280.36474 40.49109,280.85936 40.109726,281.33874 39.728363,281.81813 39.333639,282.28224 38.925006,282.72944 38.516369,283.17667 38.093938,283.60693 37.657126,284.0188 37.438747,284.22473 37.216705,284.42612 36.99111,284.62263 36.765487,284.81913 36.536225,285.01074 36.303306,285.19741 36.070382,285.38408 35.833796,285.56572 35.593438,285.74214 35.353077,285.9186 35.108999,286.08993 34.861064,286.25573 34.613156,286.42155 34.361366,286.58194 34.105801,286.73672 33.850237,286.8915 33.590789,287.0406 33.327456,287.18397 33.029362,287.02168 32.736362,286.85197 32.448212,286.67508 32.160062,286.49821 31.876786,286.31412 31.598414,286.1232 31.320042,285.93229 31.046546,285.73444 30.777787,285.53007 30.509055,285.32569 30.245088,285.11475 29.985806,284.8975 29.726494,284.68025 29.471977,284.45675 29.221976,284.22718 28.971975,283.99765 28.72663,283.76217 28.485775,283.52087 28.24492,283.27961 28.008498,283.03255 27.776622,282.78012 27.54472,282.52772 27.317306,282.26991 27.094217,282.00691 26.871156,281.74393 26.652447,281.47578 26.438007,281.2028 26.223596,280.92985 26.01337,280.65204 25.807442,280.36967 25.39553,279.80493 25.000504,279.22199 24.621564,278.62311 24.242625,278.02422 23.879799,277.40947 23.532481,276.78105 23.18519,276.15263 22.853326,275.51057 22.536364,274.85726 L 24.967615,275.64555 A 0.75760456,0.75760456 0 0 0 24.999209,275.65511 0.75760456,0.75760456 0 0 0 25.073086,275.67175 0.75760456,0.75760456 0 0 0 25.148229,275.68086 0.75760456,0.75760456 0 0 0 25.223979,275.68244 0.75760456,0.75760456 0 0 0 25.299563,275.67646 0.75760456,0.75760456 0 0 0 25.373991,275.66307 0.75760456,0.75760456 0 0 0 25.446875,275.64213 0.75760456,0.75760456 0 0 0 25.517198,275.6141 0.75760456,0.75760456 0 0 0 25.584381,275.57922 0.75760456,0.75760456 0 0 0 25.647734,275.5378 0.75760456,0.75760456 0 0 0 25.706791,275.49027 0.75760456,0.75760456 0 0 0 25.760587,275.43703 0.75760456,0.75760456 0 0 0 25.808984,275.37881 0.75760456,0.75760456 0 0 0 25.851128,275.31589 0.75760456,0.75760456 0 0 0 25.886993,275.24914 0.75760456,0.75760456 0 0 0 25.915887,275.17924 0.75760456,0.75760456 0 0 0 25.937675,275.10665 0.75760456,0.75760456 0 0 0 25.952192,275.03234 0.75760456,0.75760456 0 0 0 25.959023,274.95689 0.75760456,0.75760456 0 0 0 25.958472,274.88116 0.75760456,0.75760456 0 0 0 25.950346,274.80589 0.75760456,0.75760456 0 0 0 25.934673,274.73185 0.75760456,0.75760456 0 0 0 25.911783,274.65968 0.75760456,0.75760456 0 0 0 25.881732,274.59007 0.75760456,0.75760456 0 0 0 25.844876,274.52405 0.75760456,0.75760456 0 0 0 25.801602,274.46182 0.75760456,0.75760456 0 0 0 25.752351,274.40433 0.75760456,0.75760456 0 0 0 25.697536,274.35195 0.75760456,0.75760456 0 0 0 25.637901,274.30539 0.75760456,0.75760456 0 0 0 25.573831,274.26496 0.75760456,0.75760456 0 0 0 25.506097,274.23124 0.75760456,0.75760456 0 0 0 25.435196,274.20433 L 21.681607,272.98729 C 21.440614,272.42766 21.209289,271.8618 20.987659,271.29084 L 34.741353,275.75047 A 0.75756966,0.75756966 0 0 0 34.791044,275.76542 0.75756966,0.75756966 0 0 0 34.865058,275.78108 0.75756966,0.75756966 0 0 0 34.940368,275.78917 0.75756966,0.75756966 0 0 0 35.016089,275.78989 0.75756966,0.75756966 0 0 0 35.091535,275.78292 0.75756966,0.75756966 0 0 0 35.165824,275.76854 0.75756966,0.75756966 0 0 0 35.238296,275.74678 0.75756966,0.75756966 0 0 0 35.308316,275.71786 0.75756966,0.75756966 0 0 0 35.375083,275.68216 0.75756966,0.75756966 0 0 0 35.437999,275.63988 0.75756966,0.75756966 0 0 0 35.496202,275.59162 0.75756966,0.75756966 0 0 0 35.549444,275.53766 0.75756966,0.75756966 0 0 0 35.596991,275.47874 0.75756966,0.75756966 0 0 0 35.638556,275.41539 0.75756966,0.75756966 0 0 0 35.673428,275.3482 0.75756966,0.75756966 0 0 0 35.70147,275.27788 0.75756966,0.75756966 0 0 0 35.722265,275.20502 0.75756966,0.75756966 0 0 0 35.735791,275.13057 0.75756966,0.75756966 0 0 0 35.741767,275.05512 0.75756966,0.75756966 0 0 0 35.740198,274.9794 0.75756966,0.75756966 0 0 0 35.731081,274.90423 0.75756966,0.75756966 0 0 0 35.71458,274.83035 0.75756966,0.75756966 0 0 0 35.690644,274.75848 0.75756966,0.75756966 0 0 0 35.659766,274.68929 0.75756966,0.75756966 0 0 0 35.622057,274.62368 0.75756966,0.75756966 0 0 0 35.578067,274.56203 0.75756966,0.75756966 0 0 0 35.527961,274.5051 0.75756966,0.75756966 0 0 0 35.472596,274.45359 0.75756966,0.75756966 0 0 0 35.412382,274.40775 0.75756966,0.75756966 0 0 0 35.347758,274.36816 0.75756966,0.75756966 0 0 0 35.27956,274.33514 0.75756966,0.75756966 0 0 0 35.208382,274.30925 L 20.322359,269.48236 C 20.131664,268.93534 19.948736,268.38529 19.773906,267.833 L 38.968279,274.05686 A 0.75756966,0.75756966 0 0 0 39.01596,274.07123 0.75756966,0.75756966 0 0 0 39.089974,274.0869 0.75756966,0.75756966 0 0 0 39.165283,274.0953 0.75756966,0.75756966 0 0 0 39.241004,274.096 0.75756966,0.75756966 0 0 0 39.316451,274.08916 0.75756966,0.75756966 0 0 0 39.390741,274.07479 0.75756966,0.75756966 0 0 0 39.463349,274.05316 0.75756966,0.75756966 0 0 0 39.533369,274.0244 0.75756966,0.75756966 0 0 0 39.60014,273.98868 0.75756966,0.75756966 0 0 0 39.663052,273.94654 0.75756966,0.75756966 0 0 0 39.72142,273.8983 0.75756966,0.75756966 0 0 0 39.774803,273.84448 0.75756966,0.75756966 0 0 0 39.822318,273.7857 0.75756966,0.75756966 0 0 0 39.863885,273.72234 0.75756966,0.75756966 0 0 0 39.898922,273.65516 0.75756966,0.75756966 0 0 0 39.927101,273.58487 0.75756966,0.75756966 0 0 0 39.948008,273.51212 0.75756966,0.75756966 0 0 0 39.96156,273.43766 0.75756966,0.75756966 0 0 0 39.967675,273.36222 0.75756966,0.75756966 0 0 0 39.966243,273.2865 0.75756966,0.75756966 0 0 0 39.957264,273.21135 0.75756966,0.75756966 0 0 0 39.940763,273.13731 0.75756966,0.75756966 0 0 0 39.916992,273.06544 0.75756966,0.75756966 0 0 0 39.886113,272.99625 0.75756966,0.75756966 0 0 0 39.848514,272.93064 0.75756966,0.75756966 0 0 0 39.804552,272.86886 0.75756966,0.75756966 0 0 0 39.754723,272.81192 0.75756966,0.75756966 0 0 0 39.699356,272.76024 0.75756966,0.75756966 0 0 0 39.639143,272.7144 0.75756966,0.75756966 0 0 0 39.57466,272.67472 0.75756966,0.75756966 0 0 0 39.506458,272.64169 0.75756966,0.75756966 0 0 0 39.435308,272.61563 L 19.24366,266.06879 C 19.090068,265.53116 18.943307,264.99279 18.803405,264.45447 L 36.539314,270.20531 A 0.75756966,0.75756966 0 0 0 36.586994,270.21969 0.75756966,0.75756966 0 0 0 36.661007,270.23536 0.75756966,0.75756966 0 0 0 36.736316,270.24377 0.75756966,0.75756966 0 0 0 36.812039,270.24445 0.75756966,0.75756966 0 0 0 36.887484,270.23763 0.75756966,0.75756966 0 0 0 36.961799,270.22328 0.75756966,0.75756966 0 0 0 37.034383,270.20162 0.75756966,0.75756966 0 0 0 37.104404,270.17287 0.75756966,0.75756966 0 0 0 37.171173,270.13713 0.75756966,0.75756966 0 0 0 37.234086,270.09499 0.75756966,0.75756966 0 0 0 37.292455,270.04677 0.75756966,0.75756966 0 0 0 37.345699,269.99294 0.75756966,0.75756966 0 0 0 37.39338,269.93416 0.75756966,0.75756966 0 0 0 37.434946,269.87081 0.75756966,0.75756966 0 0 0 37.469956,269.80362 0.75756966,0.75756966 0 0 0 37.498135,269.7333 0.75756966,0.75756966 0 0 0 37.519069,269.66057 0.75756966,0.75756966 0 0 0 37.532594,269.58613 0.75756966,0.75756966 0 0 0 37.538709,269.51068 0.75756966,0.75756966 0 0 0 37.537276,269.43495 0.75756966,0.75756966 0 0 0 37.528186,269.35978 0.75756966,0.75756966 0 0 0 37.511797,269.28577 0.75756966,0.75756966 0 0 0 37.488023,269.2139 0.75756966,0.75756966 0 0 0 37.457148,269.1447 0.75756966,0.75756966 0 0 0 37.419576,269.0791 0.75756966,0.75756966 0 0 0 37.375585,269.01731 0.75756966,0.75756966 0 0 0 37.325616,268.96038 0.75756966,0.75756966 0 0 0 37.270391,268.9087 0.75756966,0.75756966 0 0 0 37.210174,268.86287 0.75756966,0.75756966 0 0 0 37.145556,268.82315 0.75756966,0.75756966 0 0 0 37.077516,268.79015 0.75756966,0.75756966 0 0 0 37.00634,268.76409 L 18.377088,262.72344 C 18.252693,262.19298 18.134248,261.66389 18.022085,261.13687 L 31.198705,265.4092 A 0.75756966,0.75756966 0 0 0 31.268752,265.43023 0.75756966,0.75756966 0 0 0 31.343042,265.44492 0.75756966,0.75756966 0 0 0 31.418351,265.45203 0.75756966,0.75756966 0 0 0 31.494072,265.45161 0.75756966,0.75756966 0 0 0 31.569381,265.44363 0.75756966,0.75756966 0 0 0 31.643533,265.42812 0.75756966,0.75756966 0 0 0 31.715839,265.40533 0.75756966,0.75756966 0 0 0 31.785308,265.37545 0.75756966,0.75756966 0 0 0 31.851637,265.33873 0.75756966,0.75756966 0 0 0 31.913834,265.29559 0.75756966,0.75756966 0 0 0 31.971487,265.24648 0.75756966,0.75756966 0 0 0 32.024016,265.19197 0.75756966,0.75756966 0 0 0 32.070705,265.13233 0.75756966,0.75756966 0 0 0 32.111279,265.0684 0.75756966,0.75756966 0 0 0 32.145159,265.00066 0.75756966,0.75756966 0 0 0 32.172208,264.9299 0.75756966,0.75756966 0 0 0 32.192124,264.85688 0.75756966,0.75756966 0 0 0 32.204519,264.78215 0.75756966,0.75756966 0 0 0 32.209505,264.70656 0.75756966,0.75756966 0 0 0 32.206778,264.63098 0.75756966,0.75756966 0 0 0 32.196696,264.55584 0.75756966,0.75756966 0 0 0 32.179039,264.48223 0.75756966,0.75756966 0 0 0 32.154111,264.41079 0.75756966,0.75756966 0 0 0 32.122242,264.34203 0.75756966,0.75756966 0 0 0 32.08365,264.27697 0.75756966,0.75756966 0 0 0 32.03867,264.2159 0.75756966,0.75756966 0 0 0 31.987875,264.15968 0.75756966,0.75756966 0 0 0 31.931767,264.10886 0.75756966,0.75756966 0 0 0 31.870864,264.06388 0.75756966,0.75756966 0 0 0 31.805801,264.02532 0.75756966,0.75756966 0 0 0 31.737187,263.99328 0.75756966,0.75756966 0 0 0 31.665597,263.96838 L 17.67675,259.43245 C 17.454515,258.27385 17.260129,257.13785 17.090009,256.03441 16.919862,254.93098 16.773955,253.86016 16.649038,252.83154 16.524093,251.80289 16.420054,250.81661 16.333452,249.88244 16.24685,248.94829 16.177683,248.06627 16.122483,247.24625 16.06731,246.42619 16.026184,245.6681 15.995527,244.98184 15.964868,244.29558 15.944623,243.68113 15.931622,243.14829 15.905564,242.08264 15.907932,241.34352 15.911128,241.00956 16.135484,240.97101 16.988918,240.82496 18.22961,240.62755 19.470303,240.4301 21.098391,240.18126 22.872029,239.93732 23.75882,239.81532 24.682026,239.69456 25.61143,239.58201 26.540834,239.46946 27.476408,239.36506 28.38799,239.27599 29.299572,239.1869 30.187161,239.11316 31.020487,239.06159 31.437163,239.03581 31.840234,239.0156 32.226004,239.00182 32.611775,238.98805 32.980137,238.98075 33.327456,238.98075 Z"
       id="path1382" />
  </g>
</svg>
