<?xml version="1.0" encoding="UTF-8" standalone="no"?>
<!-- Created with Inkscape (http://www.inkscape.org/) -->

<svg
   xmlns:dc="http://purl.org/dc/elements/1.1/"
   xmlns:cc="http://creativecommons.org/ns#"
   xmlns:rdf="http://www.w3.org/1999/02/22-rdf-syntax-ns#"
   xmlns:svg="http://www.w3.org/2000/svg"
   xmlns="http://www.w3.org/2000/svg"
   xmlns:sodipodi="http://sodipodi.sourceforge.net/DTD/sodipodi-0.dtd"
   xmlns:inkscape="http://www.inkscape.org/namespaces/inkscape"
   width="762.89697mm"
   height="234.808mm"
   viewBox="0 0 762.89697 234.808"
   version="1.1"
   id="svg1002"
   inkscape:version="0.92.2 (5c3e80d, 2017-08-06)"
   sodipodi:docname="logo-inline-dark.svg">
  <defs
     id="defs996" />
  <sodipodi:namedview
     id="base"
     pagecolor="#ffffff"
     bordercolor="#666666"
     borderopacity="1.0"
     inkscape:pageopacity="0.0"
     inkscape:pageshadow="2"
     inkscape:zoom="0.24748737"
     inkscape:cx="1684.4373"
     inkscape:cy="473.94134"
     inkscape:document-units="mm"
     inkscape:current-layer="layer1"
     showgrid="false"
     fit-margin-top="0"
     fit-margin-left="0"
     fit-margin-right="0"
     fit-margin-bottom="0"
     inkscape:window-width="1920"
     inkscape:window-height="1017"
     inkscape:window-x="-8"
     inkscape:window-y="-8"
     inkscape:window-maximized="1" />
  <metadata
     id="metadata999">
    <rdf:RDF>
      <cc:Work
         rdf:about="">
        <dc:format>image/svg+xml</dc:format>
        <dc:type
           rdf:resource="http://purl.org/dc/dcmitype/StillImage" />
        <dc:title></dc:title>
      </cc:Work>
    </rdf:RDF>
  </metadata>
  <g
     inkscape:label="Layer 1"
     inkscape:groupmode="layer"
     id="layer1"
     transform="translate(235.54968,25.267094)">
    <path
       inkscape:connector-curvature="0"
       id="path1382"
       d="M -70.699707,43.622325 -75.996107,41.905126 C -75.587407,37.128026 -75.297407,32.729625 -75.092807,28.819025 -74.888107,24.908525 -74.768507,21.486026 -74.700007,18.660525 -74.631507,15.835026 -74.614507,13.606126 -74.614207,12.084126 -74.614007,10.562224 -74.630807,9.7468264 -74.630807,9.7468264 A 2.360736,2.360736 0 0 0 -74.641107,9.5649254 2.360736,2.360736 0 0 0 -74.676207,9.3313244 2.360736,2.360736 0 0 0 -74.733607,9.1024264 2.360736,2.360736 0 0 0 -74.814207,8.8807264 2.360736,2.360736 0 0 0 -74.916507,8.6678264 2.360736,2.360736 0 0 0 -75.039007,8.4663254 2.360736,2.360736 0 0 0 -75.181607,8.2782254 2.360736,2.360736 0 0 0 -75.341807,8.1051244 2.360736,2.360736 0 0 0 -75.519107,7.9490254 2.360736,2.360736 0 0 0 -75.710307,7.8115264 2.360736,2.360736 0 0 0 -75.914907,7.6937264 2.360736,2.360736 0 0 0 -76.129907,7.5966264 2.360736,2.360736 0 0 0 -76.353707,7.5216254 2.360736,2.360736 0 0 0 -76.584107,7.4694254 C -76.584107,7.4694254 -79.325807,6.9860264 -83.784207,6.2607244 -88.242607,5.5354244 -94.417307,4.5680254 -101.28391,3.6009264 -104.71721,3.1174264 -108.32381,2.6342264 -111.97471,2.1809264 -115.62571,1.7276254 -119.32141,1.3043244 -122.93381,0.94172543 -126.54611,0.57902543 -130.07511,0.27682543 -133.39261,0.06522543 -135.05132,-0.04047457 -136.65691,-0.12357457 -138.19381,-0.18017457 -139.73081,-0.23687457 -141.19901,-0.26697457 -142.58221,-0.26697457 -143.96531,-0.26697457 -145.43311,-0.23687457 -146.97001,-0.18017457 -148.50701,-0.12347457 -150.11311,-0.04057457 -151.77181,0.06522543 -155.08921,0.27692543 -158.61831,0.57952543 -162.23061,0.94222543 -165.84291,1.3049244 -169.53861,1.7280254 -173.18961,2.1814264 -176.84061,2.6348264 -180.44661,3.1183264 -183.87991,3.6020244 -190.74651,4.5693254 -196.92171,5.5368244 -201.38011,6.2623254 -205.83851,6.9878254 -208.58021,7.4715264 -208.58021,7.4715264 A 2.360736,2.360736 0 0 0 -208.75591,7.5092244 2.360736,2.360736 0 0 0 -208.98121,7.5790264 2.360736,2.360736 0 0 0 -209.19881,7.6705244 2.360736,2.360736 0 0 0 -209.40601,7.7836264 2.360736,2.360736 0 0 0 -209.60081,7.9170264 2.360736,2.360736 0 0 0 -209.78121,8.0689264 2.360736,2.360736 0 0 0 -209.94551,8.2379264 2.360736,2.360736 0 0 0 -210.09231,8.4229254 2.360736,2.360736 0 0 0 -210.21991,8.6213264 2.360736,2.360736 0 0 0 -210.32691,8.8316244 2.360736,2.360736 0 0 0 -210.41271,9.0518244 2.360736,2.360736 0 0 0 -210.47571,9.2786254 2.360736,2.360736 0 0 0 -210.51601,9.5112254 2.360736,2.360736 0 0 0 -210.53311,9.7468264 C -210.53311,9.7468264 -210.57291,11.679025 -210.52891,15.146025 -210.50691,16.879525 -210.46381,18.996826 -210.38431,21.447926 -210.30471,23.899026 -210.18861,26.684126 -210.02041,29.753324 -209.85231,32.822626 -209.63181,36.176225 -209.34401,39.764125 -209.05611,43.352124 -208.70101,47.174324 -208.26241,51.181526 -207.82391,55.188725 -207.30191,59.380826 -206.68161,63.707925 -206.37151,65.871426 -206.03691,68.068727 -205.67551,70.293526 -205.31411,72.518325 -204.92621,74.770825 -204.50971,77.044525 L -210.17181,75.209025 C -209.79831,77.248625 -209.39851,79.306625 -208.97761,81.377125 L -203.32161,83.211125 C -202.93451,85.113425 -202.52191,87.029325 -202.09281,88.951325 L -207.73891,87.120425 C -207.27541,89.199325 -206.78271,91.284425 -206.26721,93.380525 L -200.62821,95.208825 C -200.14971,97.149525 -199.64821,99.093825 -199.12241,101.03943 L -204.77681,99.206025 C -204.20701,101.32413 -203.62801,103.44363 -202.99971,105.56323 L -197.31321,107.40653 C -196.72001,109.39323 -196.09921,111.37623 -195.45131,113.35243 L -201.12951,111.51113 C -200.42291,113.68893 -199.67251,115.85493 -198.89761,118.01723 L -193.20291,119.86363 C -192.45851,121.91033 -191.68161,123.94443 -190.87121,125.96193 L -196.60731,124.10163 C -195.72361,126.34633 -194.80451,128.57363 -193.83851,130.78183 L -188.02181,132.66803 C -186.79651,135.39293 -185.50381,138.07633 -184.13981,140.70733 -183.45781,142.02283 -182.75791,143.32533 -182.03971,144.61303 -181.32161,145.90073 -180.58531,147.17383 -179.83001,148.43093 -179.07481,149.68793 -178.30061,150.92913 -177.50721,152.15263 -176.71381,153.37613 -175.90101,154.58233 -175.06861,155.76943 -174.23611,156.95663 -173.38361,158.12473 -172.51111,159.27263 -171.63861,160.42053 -170.74631,161.54803 -169.83271,162.65383 -168.91921,163.75953 -167.98481,164.84353 -167.02931,165.90423 -166.07371,166.96503 -165.09671,168.00233 -164.09821,169.01513 -163.09961,170.02803 -162.07941,171.01623 -161.03691,171.97833 -159.99441,172.94043 -158.92961,173.87633 -157.84221,174.78483 -156.75481,175.69333 -155.64451,176.57453 -154.51121,177.42653 -153.37781,178.27853 -152.22131,179.10143 -151.04111,179.89413 -149.86091,180.68673 -148.65701,181.44933 -147.42891,182.17973 -146.20081,182.91023 -144.94901,183.60883 -143.67201,184.27423 A 2.360736,2.360736 0 0 0 -143.54491,184.33563 2.360736,2.360736 0 0 0 -143.32481,184.42093 2.360736,2.360736 0 0 0 -143.09741,184.48393 2.360736,2.360736 0 0 0 -142.86481,184.52373 2.360736,2.360736 0 0 0 -142.62971,184.54033 2.360736,2.360736 0 0 0 -142.39361,184.53313 2.360736,2.360736 0 0 0 -142.15951,184.50263 2.360736,2.360736 0 0 0 -141.93001,184.44883 2.360736,2.360736 0 0 0 -141.70681,184.37233 2.360736,2.360736 0 0 0 -141.49231,184.27423 C -140.45191,183.73203 -139.42761,183.16783 -138.41961,182.58233 -137.41171,181.99683 -136.42011,181.39013 -135.44411,180.76273 -134.46812,180.13543 -133.50771,179.48733 -132.56312,178.81973 -131.61861,178.15213 -130.68991,177.46473 -129.77621,176.75833 -128.86261,176.05203 -127.96411,175.32633 -127.08081,174.58283 -126.19751,173.83923 -125.32921,173.07783 -124.47581,172.29873 -123.62232,171.51953 -122.78381,170.72293 -121.95971,169.90973 -121.13561,169.09643 -120.32621,168.26623 -119.53091,167.42043 -117.94021,165.72883 -116.40671,163.97423 -114.92811,162.16183 -113.44941,160.34953 -112.02531,158.47973 -110.65441,156.55913 -109.28351,154.63833 -107.96591,152.66653 -106.69861,150.64983 -105.43121,148.63323 -104.21461,146.57163 -103.04661,144.47143 -101.87861,142.37123 -100.75901,140.23223 -99.686107,138.06093 -98.613207,135.88973 -97.586707,133.68613 -96.604607,131.45623 -95.622607,129.22623 -94.685207,126.97003 -93.789807,124.69383 -92.894407,122.41763 -92.041207,120.12163 -91.228207,117.81153 -90.415207,115.50153 -89.642707,113.17753 -88.907907,110.84613 -88.173207,108.51463 -87.476307,106.17563 -86.815607,103.83513 -86.154807,101.49473 -85.529707,99.152525 -84.938707,96.815425 -84.347707,94.478425 -83.790907,92.146325 -83.265407,89.825125 L -78.406807,91.400825 C -77.976407,89.596125 -77.574807,87.805525 -77.182607,86.015025 L -82.095407,84.422425 C -82.003207,83.978225 -81.906407,83.531625 -81.816407,83.088625 -81.566207,81.856125 -81.324707,80.628125 -81.091307,79.405625 L -76.117007,81.018425 C -75.748307,79.194025 -75.396207,77.379425 -75.064307,75.579025 L -80.102307,73.946025 C -79.806807,72.242825 -79.521507,70.549426 -79.256807,68.876526 L -74.182707,70.521925 C -73.870807,68.671725 -73.571907,66.839925 -73.296007,65.027725 L -78.432107,63.362125 C -78.186307,61.635227 -77.952407,59.925426 -77.737007,58.245226 L -72.541507,59.929826 C -72.281807,58.044826 -72.053607,56.208025 -71.829907,54.380325 L -77.066807,52.682224 C -76.867607,50.924724 -76.685307,49.204424 -76.517007,47.518224 L -71.268707,49.219926 C -71.062107,47.312124 -70.870507,45.445026 -70.699707,43.622325 Z M -142.58221,4.4536254 C -141.32131,4.4536254 -139.98341,4.4801264 -138.58291,4.5301244 -137.18241,4.5801254 -135.71911,4.6536264 -134.20651,4.7471254 -131.18121,4.9343254 -127.95881,5.2021264 -124.64941,5.5254264 -121.34001,5.8487254 -117.94361,6.2274264 -114.56941,6.6359244 -111.19531,7.0444254 -107.84331,7.4825254 -104.62381,7.9252254 -98.184707,8.8107254 -92.274307,9.7134254 -87.770007,10.430025 -83.265707,11.146525 -80.168007,11.677025 -79.353507,11.817024 -79.340107,13.221525 -79.330407,16.604625 -79.481107,21.520824 -79.556507,23.978925 -79.672107,26.820124 -79.847007,29.989025 -80.021807,33.157826 -80.256107,36.654324 -80.569407,40.422525 L -114.11311,29.545626 A 2.750275,2.750275 0 0 0 -114.37721,29.469725 2.750275,2.750275 0 0 0 -114.64741,29.421126 2.750275,2.750275 0 0 0 -114.92182,29.399425 2.750275,2.750275 0 0 0 -115.12541,29.400925 2.750275,2.750275 0 0 0 -115.39931,29.426826 2.750275,2.750275 0 0 0 -115.66911,29.479525 2.750275,2.750275 0 0 0 -115.93211,29.559125 2.750275,2.750275 0 0 0 -116.18591,29.665025 2.750275,2.750275 0 0 0 -116.42821,29.795226 2.750275,2.750275 0 0 0 -116.65561,29.949224 2.750275,2.750275 0 0 0 -116.86701,30.124926 2.750275,2.750275 0 0 0 -117.05971,30.320826 2.750275,2.750275 0 0 0 -117.23181,30.535226 2.750275,2.750275 0 0 0 -117.38161,30.765726 2.750275,2.750275 0 0 0 -117.50771,31.010124 2.750275,2.750275 0 0 0 -117.60901,31.265926 2.750275,2.750275 0 0 0 -117.68401,31.530025 2.750275,2.750275 0 0 0 -117.73251,31.800826 2.750275,2.750275 0 0 0 -117.75371,32.074725 2.750275,2.750275 0 0 0 -117.74701,32.349625 2.750275,2.750275 0 0 0 -117.71341,32.622426 2.750275,2.750275 0 0 0 -117.65241,32.890626 2.750275,2.750275 0 0 0 -117.56511,33.151124 2.750275,2.750275 0 0 0 -117.45251,33.401724 2.750275,2.750275 0 0 0 -117.31501,33.639926 2.750275,2.750275 0 0 0 -117.15431,33.863224 2.750275,2.750275 0 0 0 -116.97241,34.069424 2.750275,2.750275 0 0 0 -116.77081,34.256424 2.750275,2.750275 0 0 0 -116.55171,34.422326 2.750275,2.750275 0 0 0 -116.31661,34.564925 2.750275,2.750275 0 0 0 -116.06911,34.684324 2.750275,2.750275 0 0 0 -115.81071,34.777926 L -81.078407,46.039225 C -81.243207,47.720625 -81.422707,49.442526 -81.620007,51.205825 L -149.59361,29.164724 A 2.750275,2.750275 0 0 0 -149.59521,29.164224 2.750275,2.750275 0 0 0 -149.85981,29.088326 2.750275,2.750275 0 0 0 -150.13001,29.039724 2.750275,2.750275 0 0 0 -150.40441,29.018026 2.750275,2.750275 0 0 0 -150.59821,29.019526 2.750275,2.750275 0 0 0 -150.87211,29.044926 2.750275,2.750275 0 0 0 -151.14181,29.097626 2.750275,2.750275 0 0 0 -151.40491,29.176725 2.750275,2.750275 0 0 0 -151.65911,29.282125 2.750275,2.750275 0 0 0 -151.90151,29.411826 2.750275,2.750275 0 0 0 -152.12941,29.565226 2.750275,2.750275 0 0 0 -152.34081,29.741026 2.750275,2.750275 0 0 0 -152.53401,29.936826 2.750275,2.750275 0 0 0 -152.70661,30.150726 2.750275,2.750275 0 0 0 -152.85651,30.381225 2.750275,2.750275 0 0 0 -152.98311,30.625126 2.750275,2.750275 0 0 0 -153.08441,30.880925 2.750275,2.750275 0 0 0 -153.16041,31.145024 2.750275,2.750275 0 0 0 -153.20891,31.415825 2.750275,2.750275 0 0 0 -153.23011,31.689725 2.750275,2.750275 0 0 0 -153.22441,31.964624 2.750275,2.750275 0 0 0 -153.19081,32.237425 2.750275,2.750275 0 0 0 -153.13041,32.505626 2.750275,2.750275 0 0 0 -153.04361,32.766624 2.750275,2.750275 0 0 0 -152.93091,33.017224 2.750275,2.750275 0 0 0 -152.79401,33.255526 2.750275,2.750275 0 0 0 -152.63381,33.478726 2.750275,2.750275 0 0 0 -152.45191,33.685424 2.750275,2.750275 0 0 0 -152.25081,33.872524 2.750275,2.750275 0 0 0 -152.03171,34.038926 2.750275,2.750275 0 0 0 -151.79711,34.182026 2.750275,2.750275 0 0 0 -151.54961,34.301424 2.750275,2.750275 0 0 0 -151.29121,34.395526 L -82.285607,56.770325 C -82.498607,58.447826 -82.729107,60.157825 -82.973907,61.889925 L -164.93951,35.313225 A 2.750275,2.750275 0 0 0 -165.20351,35.237324 2.750275,2.750275 0 0 0 -165.47381,35.188226 2.750275,2.750275 0 0 0 -165.74821,35.166426 2.750275,2.750275 0 0 0 -165.94411,35.167525 2.750275,2.750275 0 0 0 -166.21741,35.193324 2.750275,2.750275 0 0 0 -166.48721,35.246026 2.750275,2.750275 0 0 0 -166.75071,35.325126 2.750275,2.750275 0 0 0 -167.00451,35.430026 2.750275,2.750275 0 0 0 -167.24681,35.560224 2.750275,2.750275 0 0 0 -167.47471,35.713725 2.750275,2.750275 0 0 0 -167.68661,35.889424 2.750275,2.750275 0 0 0 -167.87931,36.085324 2.750275,2.750275 0 0 0 -168.05191,36.299224 2.750275,2.750275 0 0 0 -168.20231,36.529727 2.750275,2.750275 0 0 0 -168.32891,36.773625 2.750275,2.750275 0 0 0 -168.43021,37.028926 2.750275,2.750275 0 0 0 -168.50571,37.293526 2.750275,2.750275 0 0 0 -168.55421,37.563726 2.750275,2.750275 0 0 0 -168.57591,37.838125 2.750275,2.750275 0 0 0 -168.56971,38.113125 2.750275,2.750275 0 0 0 -168.53671,38.385924 2.750275,2.750275 0 0 0 -168.47621,38.654124 2.750275,2.750275 0 0 0 -168.38891,38.914525 2.750275,2.750275 0 0 0 -168.27671,39.165725 2.750275,2.750275 0 0 0 -168.13931,39.403924 2.750275,2.750275 0 0 0 -167.97961,39.627225 2.750275,2.750275 0 0 0 -167.79771,39.833925 2.750275,2.750275 0 0 0 -167.59621,40.020925 2.750275,2.750275 0 0 0 -167.37761,40.186826 2.750275,2.750275 0 0 0 -167.14291,40.330524 2.750275,2.750275 0 0 0 -166.89541,40.449925 2.750275,2.750275 0 0 0 -166.63701,40.543924 L -83.797707,67.404326 C -84.060707,69.078125 -84.335307,70.766527 -84.630107,72.477426 L -156.12291,49.295825 A 2.750275,2.750275 0 0 0 -156.38701,49.220926 2.750275,2.750275 0 0 0 -156.65731,49.172325 2.750275,2.750275 0 0 0 -156.93171,49.151124 2.750275,2.750275 0 0 0 -157.12141,49.152725 2.750275,2.750275 0 0 0 -157.39471,49.177524 2.750275,2.750275 0 0 0 -157.66501,49.230227 2.750275,2.750275 0 0 0 -157.92801,49.309326 2.750275,2.750275 0 0 0 -158.18231,49.414226 2.750275,2.750275 0 0 0 -158.42461,49.543925 2.750275,2.750275 0 0 0 -158.65251,49.697425 2.750275,2.750275 0 0 0 -158.86441,49.872526 2.750275,2.750275 0 0 0 -159.05771,50.068427 2.750275,2.750275 0 0 0 -159.23031,50.282326 2.750275,2.750275 0 0 0 -159.38061,50.512326 2.750275,2.750275 0 0 0 -159.50721,50.756224 2.750275,2.750275 0 0 0 -159.60901,51.012026 2.750275,2.750275 0 0 0 -159.68451,51.276125 2.750275,2.750275 0 0 0 -159.73361,51.546926 2.750275,2.750275 0 0 0 -159.75531,51.820725 2.750275,2.750275 0 0 0 -159.74961,52.095725 2.750275,2.750275 0 0 0 -159.71651,52.368526 2.750275,2.750275 0 0 0 -159.65611,52.636726 2.750275,2.750275 0 0 0 -159.56921,52.897725 2.750275,2.750275 0 0 0 -159.45711,53.148325 2.750275,2.750275 0 0 0 -159.32021,53.387124 2.750275,2.750275 0 0 0 -159.16001,53.610324 2.750275,2.750275 0 0 0 -158.97861,53.817025 2.750275,2.750275 0 0 0 -158.77761,54.004125 2.750275,2.750275 0 0 0 -158.55851,54.170527 2.750275,2.750275 0 0 0 -158.32441,54.314127 2.750275,2.750275 0 0 0 -158.07631,54.434025 2.750275,2.750275 0 0 0 -157.81841,54.528124 L -85.620307,77.937025 C -85.884807,79.333425 -86.156507,80.735325 -86.443507,82.149125 -86.498107,82.417725 -86.557607,82.688325 -86.613007,82.957325 L -136.73241,66.705625 A 2.750275,2.750275 0 0 0 -136.73401,66.705125 2.750275,2.750275 0 0 0 -136.99801,66.630227 2.750275,2.750275 0 0 0 -137.26881,66.582125 2.750275,2.750275 0 0 0 -137.54321,66.561424 2.750275,2.750275 0 0 0 -137.73181,66.563025 2.750275,2.750275 0 0 0 -138.00571,66.587825 2.750275,2.750275 0 0 0 -138.27551,66.640524 2.750275,2.750275 0 0 0 -138.53901,66.719627 2.750275,2.750275 0 0 0 -138.79331,66.824526 2.750275,2.750275 0 0 0 -139.03561,66.954225 2.750275,2.750275 0 0 0 -139.26351,67.107726 2.750275,2.750275 0 0 0 -139.47541,67.282827 2.750275,2.750275 0 0 0 -139.66871,67.478724 2.750275,2.750275 0 0 0 -139.84131,67.692627 2.750275,2.750275 0 0 0 -139.99161,67.922626 2.750275,2.750275 0 0 0 -140.11821,68.166525 2.750275,2.750275 0 0 0 -140.22011,68.422326 2.750275,2.750275 0 0 0 -140.29551,68.686425 2.750275,2.750275 0 0 0 -140.34461,68.957227 2.750275,2.750275 0 0 0 -140.36631,69.231126 2.750275,2.750275 0 0 0 -140.36061,69.506025 2.750275,2.750275 0 0 0 -140.32701,69.778827 2.750275,2.750275 0 0 0 -140.26711,70.047027 2.750275,2.750275 0 0 0 -140.18031,70.308025 2.750275,2.750275 0 0 0 -140.06811,70.558625 2.750275,2.750275 0 0 0 -139.93121,70.797425 2.750275,2.750275 0 0 0 -139.77101,71.020625 2.750275,2.750275 0 0 0 -139.58961,71.227325 2.750275,2.750275 0 0 0 -139.38861,71.414425 2.750275,2.750275 0 0 0 -139.16951,71.580824 2.750275,2.750275 0 0 0 -138.93481,71.724427 2.750275,2.750275 0 0 0 -138.68731,71.844325 2.750275,2.750275 0 0 0 -138.42951,71.938425 L -87.779307,88.361725 C -88.289607,90.622325 -88.830607,92.891025 -89.404007,95.162325 -89.977507,97.433525 -90.583107,99.707125 -91.223007,101.97743 -91.863007,104.24763 -92.537007,106.51463 -93.246707,108.77233 -93.956307,111.03003 -94.701707,113.27843 -95.484307,115.51193 -96.266907,117.74543 -97.086807,119.96393 -97.945607,122.16173 -98.804507,124.35943 -99.702207,126.53643 -100.64061,128.68683 -101.57891,130.83733 -102.55781,132.96133 -103.57891,135.05293 -104.59991,137.14453 -105.66291,139.20403 -106.76991,141.22513 -107.87691,143.24623 -109.02771,145.22933 -110.22401,147.16843 -111.42021,149.10753 -112.66211,151.00263 -113.95091,152.84823 -115.23961,154.69373 -116.57541,156.48943 -117.95991,158.22973 -119.34441,159.97013 -120.77741,161.65503 -122.26091,163.27853 -123.74442,164.90213 -125.27801,166.46413 -126.86381,167.95943 -127.65661,168.70703 -128.46271,169.43813 -129.28171,170.15153 -130.10081,170.86493 -130.93312,171.56053 -131.77871,172.23823 -132.62431,172.91593 -133.48321,173.57533 -134.35581,174.21583 -135.22841,174.85643 -136.11451,175.47843 -137.01461,176.08033 -137.91461,176.68233 -138.82871,177.26463 -139.75651,177.82653 -140.68431,178.38843 -141.62621,178.92973 -142.58221,179.45023 -143.66441,178.86103 -144.72811,178.24493 -145.77421,177.60273 -146.82031,176.96063 -147.84871,176.29233 -148.85931,175.59923 -149.86991,174.90613 -150.86281,174.18783 -151.83851,173.44593 -152.81411,172.70393 -153.77241,171.93813 -154.71371,171.14943 -155.65511,170.36073 -156.57911,169.54933 -157.48671,168.71593 -158.39431,167.88263 -159.28501,167.02773 -160.15941,166.15173 -161.03381,165.27583 -161.89211,164.37893 -162.73391,163.46253 -163.57581,162.54623 -164.40141,161.61023 -165.21131,160.65543 -166.02111,159.70073 -166.81511,158.72723 -167.59361,157.73623 -168.37201,156.74533 -169.13521,155.73673 -169.88281,154.71163 -171.37821,152.66143 -172.81231,150.54513 -174.18801,148.37093 -175.56371,146.19673 -176.88091,143.96493 -178.14181,141.68353 -179.40261,139.40213 -180.60741,137.07123 -181.75811,134.69943 L -172.93171,137.56123 A 2.7504017,2.7504017 0 0 0 -172.81701,137.59593 2.7504017,2.7504017 0 0 0 -172.54881,137.65633 2.7504017,2.7504017 0 0 0 -172.27601,137.68943 2.7504017,2.7504017 0 0 0 -172.00101,137.69513 2.7504017,2.7504017 0 0 0 -171.72661,137.67343 2.7504017,2.7504017 0 0 0 -171.45641,137.62483 2.7504017,2.7504017 0 0 0 -171.19181,137.54883 2.7504017,2.7504017 0 0 0 -170.93651,137.44703 2.7504017,2.7504017 0 0 0 -170.69261,137.32043 2.7504017,2.7504017 0 0 0 -170.46261,137.17003 2.7504017,2.7504017 0 0 0 -170.24821,136.99753 2.7504017,2.7504017 0 0 0 -170.05291,136.80423 2.7504017,2.7504017 0 0 0 -169.87721,136.59283 2.7504017,2.7504017 0 0 0 -169.72421,136.36443 2.7504017,2.7504017 0 0 0 -169.59401,136.12213 2.7504017,2.7504017 0 0 0 -169.48911,135.86833 2.7504017,2.7504017 0 0 0 -169.41001,135.60483 2.7504017,2.7504017 0 0 0 -169.35731,135.33503 2.7504017,2.7504017 0 0 0 -169.33251,135.06113 2.7504017,2.7504017 0 0 0 -169.33451,134.78623 2.7504017,2.7504017 0 0 0 -169.36401,134.51293 2.7504017,2.7504017 0 0 0 -169.42091,134.24413 2.7504017,2.7504017 0 0 0 -169.50401,133.98213 2.7504017,2.7504017 0 0 0 -169.61311,133.72943 2.7504017,2.7504017 0 0 0 -169.74691,133.48973 2.7504017,2.7504017 0 0 0 -169.90401,133.26383 2.7504017,2.7504017 0 0 0 -170.08281,133.05513 2.7504017,2.7504017 0 0 0 -170.28181,132.86493 2.7504017,2.7504017 0 0 0 -170.49831,132.69593 2.7504017,2.7504017 0 0 0 -170.73091,132.54913 2.7504017,2.7504017 0 0 0 -170.97681,132.42673 2.7504017,2.7504017 0 0 0 -171.23421,132.32903 L -184.86121,127.91073 C -185.73611,125.87903 -186.57591,123.82473 -187.38051,121.75193 L -137.44921,137.94213 A 2.750275,2.750275 0 0 0 -137.26881,137.99643 2.750275,2.750275 0 0 0 -137.00011,138.05323 2.750275,2.750275 0 0 0 -136.72671,138.08263 2.750275,2.750275 0 0 0 -136.45181,138.08523 2.750275,2.750275 0 0 0 -136.17791,138.05993 2.750275,2.750275 0 0 0 -135.90821,138.00773 2.750275,2.750275 0 0 0 -135.64511,137.92873 2.750275,2.750275 0 0 0 -135.39091,137.82373 2.750275,2.750275 0 0 0 -135.14852,137.69413 2.750275,2.750275 0 0 0 -134.92011,137.54063 2.750275,2.750275 0 0 0 -134.70881,137.36543 2.750275,2.750275 0 0 0 -134.51552,137.16953 2.750275,2.750275 0 0 0 -134.34291,136.95563 2.750275,2.750275 0 0 0 -134.19201,136.72563 2.750275,2.750275 0 0 0 -134.06541,136.48173 2.750275,2.750275 0 0 0 -133.96361,136.22643 2.750275,2.750275 0 0 0 -133.88811,135.96193 2.750275,2.750275 0 0 0 -133.83901,135.69163 2.750275,2.750275 0 0 0 -133.81731,135.41773 2.750275,2.750275 0 0 0 -133.82301,135.14283 2.750275,2.750275 0 0 0 -133.85611,134.86993 2.750275,2.750275 0 0 0 -133.91601,134.60173 2.750275,2.750275 0 0 0 -134.00291,134.34083 2.750275,2.750275 0 0 0 -134.11501,134.08963 2.750275,2.750275 0 0 0 -134.25191,133.85143 2.750275,2.750275 0 0 0 -134.41161,133.62763 2.750275,2.750275 0 0 0 -134.59351,133.42093 2.750275,2.750275 0 0 0 -134.79451,133.23393 2.750275,2.750275 0 0 0 -135.01311,133.06753 2.750275,2.750275 0 0 0 -135.24772,132.92383 2.750275,2.750275 0 0 0 -135.49531,132.80393 2.750275,2.750275 0 0 0 -135.75371,132.70993 L -189.79581,115.18643 C -190.48811,113.20053 -191.15221,111.20363 -191.78691,109.19863 L -122.10381,131.79363 A 2.750275,2.750275 0 0 0 -121.93071,131.84583 2.750275,2.750275 0 0 0 -121.66201,131.90273 2.750275,2.750275 0 0 0 -121.38861,131.93323 2.750275,2.750275 0 0 0 -121.11371,131.93573 2.750275,2.750275 0 0 0 -120.83981,131.91093 2.750275,2.750275 0 0 0 -120.57011,131.85873 2.750275,2.750275 0 0 0 -120.30651,131.78023 2.750275,2.750275 0 0 0 -120.05231,131.67583 2.750275,2.750275 0 0 0 -119.80991,131.54613 2.750275,2.750275 0 0 0 -119.58151,131.39313 2.750275,2.750275 0 0 0 -119.36961,131.21803 2.750275,2.750275 0 0 0 -119.17581,131.02263 2.750275,2.750275 0 0 0 -119.00331,130.80923 2.750275,2.750275 0 0 0 -118.85241,130.57923 2.750275,2.750275 0 0 0 -118.72521,130.33533 2.750275,2.750275 0 0 0 -118.62291,130.08013 2.750275,2.750275 0 0 0 -118.54701,129.81603 2.750275,2.750275 0 0 0 -118.49781,129.54573 2.750275,2.750275 0 0 0 -118.47561,129.27183 2.750275,2.750275 0 0 0 -118.48081,128.99693 2.750275,2.750275 0 0 0 -118.51341,128.72413 2.750275,2.750275 0 0 0 -118.57331,128.45533 2.750275,2.750275 0 0 0 -118.65961,128.19443 2.750275,2.750275 0 0 0 -118.77171,127.94323 2.750275,2.750275 0 0 0 -118.90821,127.70503 2.750275,2.750275 0 0 0 -119.06781,127.48073 2.750275,2.750275 0 0 0 -119.24871,127.27403 2.750275,2.750275 0 0 0 -119.44971,127.08643 2.750275,2.750275 0 0 0 -119.66831,126.92003 2.750275,2.750275 0 0 0 -119.90241,126.77593 2.750275,2.750275 0 0 0 -120.15001,126.65603 2.750275,2.750275 0 0 0 -120.40831,126.56143 L -193.71191,102.79383 C -194.26951,100.84203 -194.80231,98.887525 -195.31021,96.933225 L -130.92191,117.81103 A 2.750275,2.750275 0 0 0 -130.74881,117.86323 2.750275,2.750275 0 0 0 -130.48011,117.92013 2.750275,2.750275 0 0 0 -130.20671,117.95063 2.750275,2.750275 0 0 0 -129.93181,117.95313 2.750275,2.750275 0 0 0 -129.65791,117.92833 2.750275,2.750275 0 0 0 -129.38812,117.87623 2.750275,2.750275 0 0 0 -129.12461,117.79763 2.750275,2.750275 0 0 0 -128.87041,117.69323 2.750275,2.750275 0 0 0 -128.62801,117.56353 2.750275,2.750275 0 0 0 -128.39961,117.41053 2.750275,2.750275 0 0 0 -128.18771,117.23543 2.750275,2.750275 0 0 0 -127.99441,117.04003 2.750275,2.750275 0 0 0 -127.82131,116.82663 2.750275,2.750275 0 0 0 -127.67041,116.59663 2.750275,2.750275 0 0 0 -127.54331,116.35273 2.750275,2.750275 0 0 0 -127.44101,116.09743 2.750275,2.750275 0 0 0 -127.36501,115.83343 2.750275,2.750275 0 0 0 -127.31591,115.56313 2.750275,2.750275 0 0 0 -127.29371,115.28923 2.750275,2.750275 0 0 0 -127.29891,115.01433 2.750275,2.750275 0 0 0 -127.33191,114.74143 2.750275,2.750275 0 0 0 -127.39141,114.47273 2.750275,2.750275 0 0 0 -127.47772,114.21183 2.750275,2.750275 0 0 0 -127.58981,113.96063 2.750275,2.750275 0 0 0 -127.72621,113.72243 2.750275,2.750275 0 0 0 -127.88591,113.49813 2.750275,2.750275 0 0 0 -128.06732,113.29143 2.750275,2.750275 0 0 0 -128.26781,113.10383 2.750275,2.750275 0 0 0 -128.48642,112.93743 2.750275,2.750275 0 0 0 -128.72101,112.79323 2.750275,2.750275 0 0 0 -128.96802,112.67343 2.750275,2.750275 0 0 0 -129.22642,112.57883 L -196.85791,90.648925 C -197.30951,88.723125 -197.73951,86.802325 -198.14671,84.889025 L -150.31041,100.39923 A 2.750275,2.750275 0 0 0 -150.05611,100.47563 2.750275,2.750275 0 0 0 -149.78641,100.52893 2.750275,2.750275 0 0 0 -149.51301,100.55473 2.750275,2.750275 0 0 0 -149.23811,100.55323 2.750275,2.750275 0 0 0 -148.96471,100.52423 2.750275,2.750275 0 0 0 -148.69551,100.46793 2.750275,2.750275 0 0 0 -148.43301,100.38523 2.750275,2.750275 0 0 0 -148.18081,100.27673 2.750275,2.750275 0 0 0 -147.94001,100.14343 2.750275,2.750275 0 0 0 -147.71421,99.986825 2.750275,2.750275 0 0 0 -147.50491,99.808525 2.750275,2.750275 0 0 0 -147.31421,99.610625 2.750275,2.750275 0 0 0 -147.14471,99.394125 2.750275,2.750275 0 0 0 -146.99741,99.162025 2.750275,2.750275 0 0 0 -146.87441,98.916125 2.750275,2.750275 0 0 0 -146.77621,98.659225 2.750275,2.750275 0 0 0 -146.70391,98.394125 2.750275,2.750275 0 0 0 -146.65891,98.122825 2.750275,2.750275 0 0 0 -146.64081,97.848425 2.750275,2.750275 0 0 0 -146.65071,97.574025 2.750275,2.750275 0 0 0 -146.68731,97.301225 2.750275,2.750275 0 0 0 -146.75141,97.034025 2.750275,2.750275 0 0 0 -146.84191,96.774625 2.750275,2.750275 0 0 0 -146.95761,96.525025 2.750275,2.750275 0 0 0 -147.09771,96.288825 2.750275,2.750275 0 0 0 -147.26101,96.067125 2.750275,2.750275 0 0 0 -147.44541,95.863025 2.750275,2.750275 0 0 0 -147.64911,95.678525 2.750275,2.750275 0 0 0 -147.87021,95.515225 2.750275,2.750275 0 0 0 -148.10641,95.375225 2.750275,2.750275 0 0 0 -148.35551,95.258925 2.750275,2.750275 0 0 0 -148.61541,95.168525 L -199.40041,78.701325 C -200.20721,74.495125 -200.91291,70.371025 -201.53051,66.365125 -202.14821,62.359225 -202.67791,58.471726 -203.13141,54.737425 -203.58501,51.003025 -203.96271,47.422427 -204.27711,44.031026 -204.59151,40.639724 -204.84261,37.437626 -205.04301,34.460624 -205.24331,31.483524 -205.39261,28.731326 -205.50391,26.239925 -205.61521,23.748526 -205.68871,21.517824 -205.73591,19.583426 -205.83051,15.714725 -205.82191,13.031425 -205.81031,11.819024 -204.99581,11.679025 -201.89751,11.148824 -197.39331,10.432126 -192.88911,9.7153254 -186.97851,8.8119244 -180.53951,7.9263264 -177.32011,7.4834244 -173.96851,7.0450264 -170.59441,6.6364244 -167.22031,6.2278254 -163.82381,5.8488264 -160.51441,5.5254264 -157.20501,5.2020254 -153.98271,4.9343254 -150.95741,4.7471254 -149.44471,4.6535264 -147.98141,4.5801254 -146.58091,4.5301244 -145.18041,4.4801264 -143.84311,4.4536254 -142.58221,4.4536254 Z"
       style="color:black;font-style:normal;font-variant:normal;font-weight:normal;font-stretch:normal;font-size:medium;line-height:normal;font-family:sans-serif;font-variant-ligatures:normal;font-variant-position:normal;font-variant-caps:normal;font-variant-numeric:normal;font-variant-alternates:normal;font-feature-settings:normal;text-indent:0;text-align:start;text-decoration:none;text-decoration-line:none;text-decoration-style:solid;text-decoration-color:black;letter-spacing:normal;word-spacing:normal;text-transform:none;writing-mode:lr-tb;direction:ltr;text-orientation:mixed;dominant-baseline:auto;baseline-shift:baseline;text-anchor:start;white-space:normal;shape-padding:0;clip-rule:nonzero;display:inline;overflow:visible;visibility:visible;opacity:1;isolation:auto;mix-blend-mode:normal;color-interpolation:sRGB;color-interpolation-filters:linearRGB;solid-color:black;solid-opacity:1;vector-effect:none;fill:#24221c;fill-opacity:1;fill-rule:nonzero;stroke:none;stroke-width:5.19112682;stroke-linecap:round;stroke-linejoin:round;stroke-miterlimit:4;stroke-dasharray:none;stroke-dashoffset:0;stroke-opacity:1;paint-order:markers fill stroke;color-rendering:auto;image-rendering:auto;shape-rendering:auto;text-rendering:auto;enable-background:accumulate" />
    <g
       transform="matrix(1.0477489,0,0,1.0477489,2174.4826,-2743.8071)"
       id="g1472">
      <path
         inkscape:connector-curvature="0"
         id="path1443"
         style="font-style:normal;font-variant:normal;font-weight:normal;font-stretch:normal;font-size:medium;line-height:125%;font-family:Montauk;-inkscape-font-specification:Montauk;letter-spacing:0px;word-spacing:0px;fill:#1a1a1a;fill-opacity:1;stroke:none;stroke-width:5.69927025px;stroke-linecap:butt;stroke-linejoin:miter;stroke-opacity:1"
         d="M -2111.4019,2678.0917 C -2111.4019,2665.0973 -2098.4076,2659.1701 -2087.009,2659.1701 -2075.6105,2659.1701 -2064.4399,2662.8176 -2055.777,2670.5686 -2055.0931,2671.2526 -2054.4092,2671.4805 -2053.4973,2671.4805 -2052.3575,2671.2526 -2051.6736,2671.0246 -2051.2176,2670.1127 L -2047.1142,2665.3253 C -2045.9743,2663.9575 -2046.2023,2661.9057 -2047.5701,2660.7659 -2058.0568,2650.9631 -2071.735,2647.0876 -2085.8692,2647.0876 -2105.0187,2647.0876 -2125.5361,2657.5743 -2125.5361,2679.0036 -2125.5361,2720.0383 -2056.6889,2703.3964 -2056.6889,2733.9445 -2056.6889,2748.9906 -2071.735,2754.2339 -2084.5014,2754.2339 -2097.0398,2754.2339 -2109.1222,2749.4465 -2118.469,2740.5557 -2119.1529,2739.8718 -2119.8368,2739.6438 -2120.9767,2739.6438 -2121.8886,2739.8718 -2122.5725,2740.0997 -2123.2564,2741.0116 L -2127.1319,2746.027 C -2128.2718,2747.3948 -2128.0438,2749.2186 -2126.9039,2750.3584 -2115.7334,2761.529 -2100.6873,2766.3164 -2084.9573,2766.3164 -2063.5281,2766.3164 -2042.5547,2756.9696 -2042.5547,2732.5767 -2042.5547,2689.7182 -2111.4019,2704.7643 -2111.4019,2678.0917 Z"
         sodipodi:nodetypes="sscccccsssscccccsss" />
      <path
         inkscape:connector-curvature="0"
         id="path1445"
         style="font-style:normal;font-variant:normal;font-weight:normal;font-stretch:normal;font-size:medium;line-height:125%;font-family:Montauk;-inkscape-font-specification:Montauk;letter-spacing:0px;word-spacing:0px;fill:#1a1a1a;fill-opacity:1;stroke:none;stroke-width:5.69927025px;stroke-linecap:butt;stroke-linejoin:miter;stroke-opacity:1"
         d="M -1949.3004,2717.5306 C -1949.3004,2700.2048 -1958.8752,2683.7909 -1974.8332,2676.4959 -1985.0918,2671.4805 -1997.4023,2671.7085 -2007.661,2676.4959 -2029.7741,2686.7546 -2038.893,2714.567 -2030.2301,2736.9081 -2025.6706,2748.5347 -2017.0078,2757.4255 -2005.1533,2761.529 L -2003.3295,2762.2129 V 2762.4409 C -1998.7701,2764.0367 -1993.9827,2764.9486 -1989.1953,2764.9486 -1983.2681,2765.1765 -1977.5688,2763.8087 -1972.0975,2761.757 -1966.6262,2759.4773 -1961.3829,2756.0577 -1957.0514,2751.7263 -1956.1395,2751.0423 -1955.4556,2749.6745 -1955.9116,2748.5347 -1955.9116,2747.8507 -1956.1395,2747.3948 -1956.5955,2746.7109 L -1959.5591,2742.6074 C -1959.5591,2742.6074 -1959.5591,2742.3794 -1959.7871,2742.3794 -1960.243,2741.9235 -1960.9269,2741.4676 -1961.3829,2741.2396 -1962.7507,2740.7837 -1963.8906,2741.2396 -1965.0304,2742.1515 -1968.45,2745.3431 -1972.3255,2747.8507 -1976.6569,2749.4465 -1978.7087,2750.3584 -1980.9884,2751.0423 -1983.2681,2751.4983 -1985.0918,2751.7263 -1986.6876,2751.9542 -1988.7394,2751.9542 -1993.0708,2751.9542 -1997.4023,2751.2703 -2001.5057,2749.4465 L -2002.1897,2749.2186 C -2011.3085,2745.1151 -2017.6917,2737.1361 -2019.7434,2727.3334 L -2020.1993,2724.3698 H -1957.7353 C -1952.948,2724.3698 -1949.3004,2722.774 -1949.3004,2717.5306 Z M -2019.7434,2711.3754 -2018.6036,2708.1838 C -2017.0078,2702.7125 -2014.0441,2697.4692 -2009.9407,2693.5937 -1993.7547,2678.0917 -1969.1339,2687.6665 -1963.4346,2708.1838 L -1962.5227,2711.3754 Z"
         sodipodi:nodetypes="scccccccccccccccccsccccsscccccc" />
      <path
         inkscape:connector-curvature="0"
         id="path1447"
         style="font-style:normal;font-variant:normal;font-weight:normal;font-stretch:normal;font-size:medium;line-height:125%;font-family:Montauk;-inkscape-font-specification:Montauk;letter-spacing:0px;word-spacing:0px;fill:#1a1a1a;fill-opacity:1;stroke:none;stroke-width:5.69927025px;stroke-linecap:butt;stroke-linejoin:miter;stroke-opacity:1"
         d="M -1935.3586,2650.9631 V 2759.7052 C -1935.3586,2761.529 -1933.7628,2763.1248 -1931.939,2763.1248 H -1924.8719 C -1922.8202,2763.1248 -1921.2244,2761.529 -1921.2244,2759.7052 V 2650.9631 C -1921.2244,2648.9114 -1922.8202,2647.3156 -1924.8719,2647.3156 H -1931.939 C -1933.7628,2647.3156 -1935.3586,2648.9114 -1935.3586,2650.9631 Z"
         sodipodi:nodetypes="sssssssss" />
      <path
         inkscape:connector-curvature="0"
         id="path1449"
         style="font-style:normal;font-variant:normal;font-weight:normal;font-stretch:normal;font-size:medium;line-height:125%;font-family:Montauk;-inkscape-font-specification:Montauk;letter-spacing:0px;word-spacing:0px;fill:#1a1a1a;fill-opacity:1;stroke:none;stroke-width:5.69927025px;stroke-linecap:butt;stroke-linejoin:miter;stroke-opacity:1"
         d="M -1820.5575,2679.9154 C -1820.5575,2676.9518 -1822.3812,2675.1281 -1825.3448,2675.1281 H -1828.9924 C -1831.956,2675.1281 -1833.7798,2676.9518 -1833.7798,2679.9154 V 2718.6705 C -1833.6176,2723.2167 -1834.6071,2728.1539 -1835.8315,2731.8928 -1837.1993,2735.7683 -1839.479,2739.4158 -1842.2147,2742.3794 -1844.9503,2745.571 -1848.1419,2747.8507 -1851.7895,2749.6745 -1855.665,2751.4983 -1859.7684,2752.1822 -1864.0999,2752.1822 -1868.2034,2752.1822 -1872.3068,2751.4983 -1876.1823,2749.6745 -1879.8299,2747.8507 -1883.2494,2745.571 -1885.9851,2742.3794 -1892.6132,2735.4955 -1894.3239,2726.7427 -1894.192,2718.6705 V 2679.9154 C -1894.192,2676.9518 -1896.0158,2675.1281 -1898.9794,2675.1281 H -1902.627 C -1905.5906,2675.1281 -1907.4143,2676.9518 -1907.4143,2679.9154 V 2718.6705 2720.9502 C -1907.1864,2726.4215 -1906.2745,2731.8928 -1904.2227,2736.9081 -1902.171,2742.3794 -1899.2074,2747.3948 -1895.1039,2751.7263 -1891.2284,2756.0577 -1886.441,2759.2493 -1881.1977,2761.757 -1875.7264,2764.2646 -1870.0271,2765.4045 -1864.0999,2765.4045 -1857.9447,2765.4045 -1852.2454,2764.2646 -1846.7741,2761.757 -1841.5308,2759.2493 -1836.9714,2756.0577 -1832.8679,2751.7263 -1828.9924,2747.3948 -1825.8008,2742.3794 -1823.749,2736.9081 -1821.9253,2731.8928 -1820.7854,2726.4215 -1820.5575,2720.9502 V 2718.6705 Z"
         sodipodi:nodetypes="ssssccccscccsssscccccscccccs" />
      <path
         inkscape:connector-curvature="0"
         id="path1451"
         style="font-style:normal;font-variant:normal;font-weight:normal;font-stretch:normal;font-size:medium;line-height:125%;font-family:Montauk;-inkscape-font-specification:Montauk;letter-spacing:0px;word-spacing:0px;fill:#1a1a1a;fill-opacity:1;stroke:none;stroke-width:5.69927025px;stroke-linecap:butt;stroke-linejoin:miter;stroke-opacity:1"
         d="M -1780.691,2710.2356 C -1786.6183,2708.8677 -1795.7371,2705.4482 -1795.7371,2697.9251 -1795.7371,2689.4902 -1788.2141,2685.3867 -1780.4631,2685.3867 -1779.2203,2685.4229 -1777.6484,2685.6104 -1776.5876,2685.8427 -1774.1047,2686.4392 -1771.5722,2687.4385 -1769.2925,2689.0343 -1766.3289,2691.314 -1763.3653,2691.7699 -1761.3135,2688.3504 L -1759.0338,2685.6147 C -1757.438,2683.335 -1757.894,2680.8273 -1760.1737,2679.2315 -1763.563,2676.9076 -1766.5058,2675.2199 -1770.2044,2673.9882 -1774.392,2672.8248 -1777.037,2672.6215 -1780.4631,2672.6204 -1795.9651,2672.6204 -1808.9594,2681.5112 -1808.9594,2697.9251 -1808.9594,2712.5153 -1795.2812,2720.4943 -1782.7428,2723.6858 -1775.9037,2725.2816 -1768.6086,2727.3334 -1764.2771,2733.4886 -1761.9974,2736.6802 -1761.9974,2741.4676 -1764.2771,2744.6592 -1768.6086,2751.0423 -1778.4113,2753.55 -1785.7064,2751.4983 -1789.126,2750.5864 -1792.3176,2748.9906 -1795.0532,2746.7109 -1796.6521,2745.278 -1797.7973,2744.057 -1798.2448,2743.5193 -1800.2965,2740.5557 -1803.0322,2739.1879 -1806.2238,2741.6955 L -1809.1874,2743.7473 C -1811.6951,2745.571 -1811.923,2747.8507 -1810.3273,2750.3584 -1806.9077,2755.1458 -1803.0322,2759.0213 -1797.7889,2761.529 -1792.5455,2764.0367 -1786.8463,2765.1765 -1781.147,2765.1765 -1765.189,2765.1765 -1749.2311,2756.2857 -1749.2311,2738.7319 -1749.2311,2721.4061 -1766.3289,2713.8831 -1780.691,2710.2356 Z"
         sodipodi:nodetypes="csccccccccsccccccccccssc" />
      <path
         inkscape:connector-curvature="0"
         id="path1453"
         style="font-style:normal;font-variant:normal;font-weight:normal;font-stretch:normal;font-size:medium;line-height:125%;font-family:Montauk;-inkscape-font-specification:Montauk;letter-spacing:0px;word-spacing:0px;fill:#1a1a1a;fill-opacity:1;stroke:none;stroke-width:5.69927025px;stroke-linecap:butt;stroke-linejoin:miter;stroke-opacity:1"
         d="M -1734.7549,2687.2105 H -1724.7242 V 2738.7319 C -1724.7242,2754.6899 -1718.797,2764.0367 -1701.9271,2764.0367 -1699.8754,2764.0367 -1697.5957,2764.2646 -1695.7719,2763.5807 -1692.3524,2762.4409 -1693.2642,2757.8815 -1693.2642,2754.9178 -1693.2642,2749.9025 -1697.8237,2750.5864 -1702.1551,2750.5864 -1704.4348,2750.1305 -1706.9425,2749.4465 -1708.5383,2747.6228 -1710.59,2745.1151 -1710.818,2739.4158 -1710.818,2736.4522 V 2687.2105 H -1697.5957 C -1694.1761,2687.2105 -1692.1244,2685.3867 -1692.1244,2681.9672 V 2679.2315 C -1692.1244,2675.812 -1694.1761,2673.9882 -1697.5957,2673.9882 H -1710.818 V 2671.7085 2652.103 C -1710.818,2648.9114 -1712.6418,2647.0876 -1715.8334,2647.0876 H -1719.4809 C -1722.6725,2647.0876 -1724.4962,2648.9114 -1724.4962,2652.103 -1724.4962,2658.7142 -1724.7242,2665.3253 -1724.7242,2671.7085 V 2673.9882 H -1734.7549 C -1736.1228,2673.9882 -1737.4906,2674.2162 -1738.6304,2674.9001 -1740.4542,2676.4959 -1739.9983,2679.9154 -1739.9983,2682.1952 -1739.9983,2685.6147 -1738.4025,2687.2105 -1734.7549,2687.2105 Z"
         sodipodi:nodetypes="scsscsccscssssccssssscscss" />
      <path
         inkscape:connector-curvature="0"
         id="path1455"
         style="font-style:normal;font-variant:normal;font-weight:normal;font-stretch:normal;font-size:medium;line-height:125%;font-family:Montauk;-inkscape-font-specification:Montauk;letter-spacing:0px;word-spacing:0px;fill:#1a1a1a;fill-opacity:1;stroke:none;stroke-width:5.69927025px;stroke-linecap:butt;stroke-linejoin:miter;stroke-opacity:1"
         d="M -1600.2628,2674.6721 H -1603.9104 C -1605.5062,2674.6721 -1607.102,2675.1281 -1607.7859,2676.4959 -1608.4698,2677.4078 -1608.6978,2678.5476 -1608.6978,2679.9154 L -1608.9257,2686.5266 -1613.0292,2682.6511 C -1614.625,2681.2833 -1616.2208,2679.9154 -1618.0446,2678.7756 -1621.0082,2676.7239 -1624.1998,2675.356 -1627.8473,2674.4441 -1631.4948,2673.3043 -1635.3703,2672.8483 -1639.2458,2672.8483 -1645.1731,2672.8483 -1651.1003,2673.9882 -1656.3437,2676.4959 -1661.815,2678.7756 -1666.3744,2682.1952 -1670.2499,2686.5266 -1674.3534,2690.6301 -1677.317,2695.6454 -1679.3687,2701.1167 -1681.6484,2707.044 -1682.5603,2712.9712 -1682.5603,2719.1264 -1682.5603,2725.5096 -1681.6484,2731.4368 -1679.3687,2737.1361 -1677.089,2742.6074 -1674.1254,2747.6228 -1670.2499,2751.7263 -1666.3744,2756.0577 -1661.587,2759.2493 -1656.3437,2761.757 -1651.1003,2764.2646 -1645.1731,2765.4045 -1639.2458,2765.4045 -1631.7228,2765.4045 -1624.6557,2763.5807 -1618.2725,2759.7052 -1616.4488,2758.5654 -1614.853,2757.1976 -1613.2572,2755.8297 L -1609.1537,2751.7263 V 2758.3374 C -1609.1537,2759.4773 -1609.1537,2760.8451 -1608.4698,2761.757 -1607.7859,2762.8968 -1605.9621,2763.1248 -1604.8223,2763.1248 H -1600.4908 C -1597.7552,2763.1248 -1595.9314,2761.529 -1595.9314,2758.7933 V 2679.9154 C -1595.9314,2676.9518 -1597.2992,2674.6721 -1600.2628,2674.6721 Z M -1611.4334,2732.3487 C -1612.8012,2735.9963 -1614.853,2739.6438 -1617.5886,2742.6074 -1620.3243,2745.799 -1623.5159,2748.0787 -1627.1634,2749.6745 -1630.8109,2751.4983 -1634.9144,2752.1822 -1639.2458,2752.1822 -1643.3493,2752.1822 -1647.4528,2751.4983 -1651.3283,2749.6745 -1654.9758,2747.8507 -1658.1674,2745.571 -1660.9031,2742.6074 -1663.6387,2739.4158 -1665.6905,2735.9963 -1667.2863,2732.1208 -1668.8821,2728.0173 -1669.566,2723.6858 -1669.566,2719.3544 -1669.566,2714.795 -1668.8821,2710.4635 -1667.2863,2706.3601 -1665.9184,2702.4846 -1663.8667,2698.837 -1661.131,2695.6454 -1658.3954,2692.6818 -1655.2038,2690.1741 -1651.3283,2688.5783 -1647.6808,2686.7546 -1643.3493,2685.8427 -1639.2458,2685.8427 -1634.9144,2685.8427 -1630.8109,2686.7546 -1627.1634,2688.5783 -1623.5159,2690.1741 -1620.3243,2692.6818 -1617.5886,2695.6454 -1614.853,2698.837 -1612.8012,2702.4846 -1611.4334,2706.3601 -1609.8376,2710.4635 -1609.1537,2714.795 -1609.1537,2719.3544 -1609.1537,2723.6858 -1609.8376,2728.0173 -1611.4334,2732.3487 Z"
         sodipodi:nodetypes="ssccccccscccscccscccscssssscccscccscccscccsc" />
    </g>
  </g>
</svg>
